<svg xmlns="http://www.w3.org/2000/svg" viewBox="0 0 32 32" fill="none">
  <defs>
    <radialGradient id="fg" cx="50%" cy="35%" r="65%">
      <stop offset="0%" stop-color="#1A8A63"/>
      <stop offset="100%" stop-color="#0F172A"/>
    </radialGradient>
  </defs>
  <circle cx="16" cy="16" r="16" fill="url(#fg)"/>
  <circle cx="16" cy="10" r="3.5" fill="#D4AF37"/>
  <g stroke="#D4AF37" stroke-width="1.2" stroke-linecap="round">
    <line x1="16" y1="3" x2="16" y2="5"/>
    <line x1="22" y1="10" x2="24" y2="10"/>
    <line x1="16" y1="17" x2="16" y2="19"/>
    <line x1="8" y1="10" x2="10" y2="10"/>
    <line x1="20" y1="6" x2="21.5" y2="4.5"/>
    <line x1="20" y1="14" x2="21.5" y2="15.5"/>
    <line x1="12" y1="14" x2="10.5" y2="15.5"/>
    <line x1="12" y1="6" x2="10.5" y2="4.5"/>
  </g>
  <circle cx="16" cy="15" r="4" fill="#D4AF37"/>
  <circle cx="16" cy="15" r="1.5" fill="#0F172A"/>
  <path d="M10 22 Q7 17 9 13 Q12 17 13 20Z" fill="#0F6A4B"/>
  <path d="M22 22 Q25 17 23 13 Q20 17 19 20Z" fill="#0F6A4B"/>
  <path d="M16 22 L16 29" stroke="#D4AF37" stroke-width="1.5" stroke-linecap="round"/>
</svg>
